<svg width="657" height="495" viewBox="0 0 657 495" fill="none" xmlns="http://www.w3.org/2000/svg">
<g clip-path="url(#clip0)" filter="url(#filter0_ddddd)">
<path d="M614.759 441.817C614.365 456.497 611.905 471.049 607.452 485.043C607.353 485.368 607.243 485.688 607.137 486.013H579.871C579.899 485.722 579.929 485.397 579.958 485.043C581.776 464.147 571.39 338.484 558.857 316.735C559.955 318.499 616.873 375.42 614.759 441.817Z" fill="#F0F0F0"/>
<path d="M612.713 485.043C612.485 485.368 612.248 485.693 612.005 486.013H591.55C591.705 485.736 591.885 485.412 592.093 485.043C595.472 478.946 605.474 460.716 614.757 441.817C624.73 421.507 633.888 400.427 633.117 392.798C633.356 394.518 640.26 446.974 612.713 485.043Z" fill="#F0F0F0"/>
<path d="M518.737 396.173H4V0H518.737V396.173Z" fill="white"/>
<path d="M518.737 396.173H4V0H518.737V396.173ZM11.6052 388.569H511.132V7.6038H11.6052V388.569Z" fill="#E5E5E5"/>
<path d="M138.714 298.639H99.7423C98.687 298.638 97.6753 298.218 96.929 297.472C96.1828 296.726 95.763 295.714 95.7617 294.659V240.946C95.763 239.891 96.1828 238.88 96.929 238.134C97.6753 237.388 98.687 236.968 99.7423 236.967H138.714C139.769 236.968 140.781 237.388 141.527 238.134C142.274 238.88 142.693 239.891 142.695 240.946V294.659C142.693 295.714 142.274 296.726 141.527 297.472C140.781 298.218 139.769 298.638 138.714 298.639Z" fill="#E6E6E6"/>
<path d="M209.784 298.639H170.813C169.757 298.638 168.746 298.218 167.999 297.472C167.253 296.726 166.833 295.714 166.832 294.659V190C166.833 188.945 167.253 187.933 167.999 187.187C168.746 186.441 169.757 186.021 170.813 186.02H209.784C210.84 186.021 211.851 186.441 212.598 187.187C213.344 187.933 213.764 188.945 213.765 190V294.659C213.764 295.714 213.344 296.726 212.598 297.472C211.851 298.218 210.84 298.638 209.784 298.639Z" fill="#E6E6E6"/>
<path d="M280.855 298.639H241.883C240.828 298.638 239.816 298.218 239.07 297.472C238.323 296.726 237.904 295.714 237.902 294.659V240.946C237.904 239.891 238.323 238.88 239.07 238.134C239.816 237.388 240.828 236.968 241.883 236.967H280.855C281.91 236.968 282.922 237.388 283.668 238.134C284.414 238.88 284.834 239.891 284.835 240.946V294.659C284.834 295.714 284.414 296.726 283.668 297.472C282.922 298.218 281.91 298.638 280.855 298.639Z" fill="#E6E6E6"/>
<path d="M351.924 298.639H312.952C311.921 298.661 310.923 298.274 310.177 297.562C309.431 296.849 308.997 295.871 308.972 294.84V169.709C308.997 168.678 309.431 167.699 310.177 166.987C310.923 166.275 311.921 165.888 312.952 165.91H351.924C352.955 165.888 353.953 166.275 354.699 166.987C355.446 167.699 355.879 168.678 355.905 169.709V294.84C355.879 295.871 355.446 296.849 354.7 297.562C353.953 298.274 352.955 298.661 351.924 298.639Z" fill="#E6E6E6"/>
<path d="M422.994 298.639H384.023C382.967 298.638 381.956 298.218 381.209 297.472C380.463 296.726 380.043 295.714 380.042 294.659V133.691C380.043 132.635 380.463 131.624 381.209 130.878C381.956 130.132 382.967 129.712 384.023 129.711H422.994C424.05 129.712 425.061 130.132 425.808 130.878C426.554 131.624 426.974 132.635 426.975 133.691V294.659C426.974 295.714 426.554 296.726 425.808 297.472C425.061 298.218 424.05 298.638 422.994 298.639Z" fill="#F2F2F2"/>
<path d="M119.228 220.878C123.672 220.878 127.274 217.277 127.274 212.834C127.274 208.392 123.672 204.79 119.228 204.79C114.785 204.79 111.183 208.392 111.183 212.834C111.183 217.277 114.785 220.878 119.228 220.878Z" fill="#3F3D56"/>
<path d="M190.299 168.591C194.742 168.591 198.344 164.99 198.344 160.547C198.344 156.104 194.742 152.503 190.299 152.503C185.855 152.503 182.253 156.104 182.253 160.547C182.253 164.99 185.855 168.591 190.299 168.591Z" fill="#3F3D56"/>
<path d="M261.369 220.878C265.812 220.878 269.415 217.277 269.415 212.834C269.415 208.392 265.812 204.79 261.369 204.79C256.925 204.79 253.323 208.392 253.323 212.834C253.323 217.277 256.925 220.878 261.369 220.878Z" fill="#3F3D56"/>
<path d="M332.438 143.118C336.882 143.118 340.484 139.516 340.484 135.074C340.484 130.631 336.882 127.03 332.438 127.03C327.995 127.03 324.393 130.631 324.393 135.074C324.393 139.516 327.995 143.118 332.438 143.118Z" fill="#3F3D56"/>
<path d="M403.509 113.623C407.952 113.623 411.554 110.021 411.554 105.578C411.554 101.136 407.952 97.5343 403.509 97.5343C399.065 97.5343 395.463 101.136 395.463 105.578C395.463 110.021 399.065 113.623 403.509 113.623Z" fill="#3F3D56"/>
<path d="M261.538 214.636L190.298 161.287L120.033 213.907L118.425 211.761L190.298 157.936L261.199 211.032L331.655 133.944L331.937 133.83L403.007 105.2L404.01 107.687L333.222 136.203L261.538 214.636Z" fill="#3F3D56"/>
<path d="M502.923 473.864L490.818 473.863L485.059 427.179L502.926 427.18L502.923 473.864Z" fill="#FFB6B6"/>
<path d="M506.01 485.597L466.977 485.595V485.102C466.977 481.073 468.578 477.209 471.427 474.361C474.276 471.512 478.14 469.912 482.17 469.911H482.171L506.011 469.912L506.01 485.597Z" fill="#2F2E41"/>
<path d="M459.66 276.267L466.533 385.749L489.608 462.812L507.486 464.107L498.508 370.187L502.445 307.815C502.445 307.815 521.104 293.908 510.787 277.167L459.66 276.267Z" fill="#2F2E41"/>
<path d="M510.823 473.864L498.717 473.863L492.958 427.179L510.825 427.18L510.823 473.864Z" fill="#FFB6B6"/>
<path d="M513.91 485.597L474.876 485.595V485.102C474.876 481.073 476.477 477.209 479.326 474.361C482.175 471.512 486.04 469.912 490.069 469.911H490.07L513.91 469.912L513.91 485.597Z" fill="#2F2E41"/>
<path d="M467.56 276.267L474.432 385.749L497.507 462.812L515.385 464.107L506.408 370.187L510.344 307.815C510.344 307.815 529.004 293.908 518.687 277.167L467.56 276.267Z" fill="#2F2E41"/>
<path d="M504.816 293.221C484.201 293.221 459.938 280.625 458.532 279.885L458.141 279.679L505.454 158.997L528.887 147.93C530.691 147.077 532.69 146.722 534.677 146.9C536.665 147.078 538.569 147.784 540.193 148.943C541.816 150.103 543.101 151.675 543.914 153.497C544.728 155.319 545.04 157.325 544.819 159.307L535.52 242.711L525.814 285.908L525.711 286.01C520.354 291.302 512.861 293.221 504.816 293.221Z" fill="#3F3D56"/>
<path d="M429.21 213.332C430.436 212.555 431.818 212.056 433.257 211.87C434.697 211.684 436.16 211.816 437.543 212.257C438.926 212.698 440.196 213.437 441.262 214.421C442.329 215.405 443.167 216.612 443.717 217.955L478.95 216.03L469.705 231.863L437.665 231.263C435.347 232.037 432.825 231.934 430.578 230.974C428.331 230.013 426.514 228.262 425.472 226.052C424.43 223.842 424.235 221.326 424.924 218.982C425.613 216.637 427.138 214.627 429.21 213.332Z" fill="#FFB6B6"/>
<path d="M498.74 238.115L463.432 237.214L463.887 213.862L480.583 208.549L507.97 170.145C509.341 168.222 511.084 166.593 513.096 165.355C515.107 164.118 517.347 163.296 519.681 162.938C522.016 162.58 524.399 162.694 526.689 163.274C528.979 163.853 531.13 164.885 533.014 166.309C534.898 167.734 536.477 169.522 537.658 171.567C538.839 173.612 539.598 175.873 539.89 178.217C540.182 180.561 540.001 182.939 539.358 185.211C538.714 187.484 537.622 189.604 536.145 191.447L498.74 238.115Z" fill="#3F3D56"/>
<path d="M519.184 143.483C532.141 143.483 542.645 132.981 542.645 120.026C542.645 107.071 532.141 96.5688 519.184 96.5688C506.227 96.5688 495.723 107.071 495.723 120.026C495.723 132.981 506.227 143.483 519.184 143.483Z" fill="#FFB6B6"/>
<path d="M489.502 100.478C491.87 98.051 494.947 96.4368 498.29 95.8678C501.549 95.1669 505.123 94.9497 507.73 92.9061C510.692 90.5465 511.996 86.0644 515.63 85.0673C517.21 84.7497 518.848 84.8797 520.359 85.4425C526.166 87.1937 531.321 90.6298 535.171 95.315C536.078 96.6575 537.234 97.8137 538.577 98.721C539.38 99.0609 540.165 99.4432 540.927 99.8662C541.764 100.526 542.422 101.385 542.843 102.364C545.463 107.652 546.067 113.713 544.541 119.414C543.633 122.78 541.994 125.9 541.026 129.286C540.058 132.672 535.583 139.114 534.536 137.515C533.49 135.915 532.147 134.425 531.574 132.578C530.457 128.947 531.466 125.293 528.624 122.77C526.866 121.21 523.687 120.164 522.492 122.178C522.018 122.958 522.048 123.945 521.643 124.755C520.843 126.334 518.533 126.65 517.002 125.742C515.527 124.724 514.49 123.187 514.099 121.437C511.798 113.658 507.878 108.761 499.554 112.088C496.454 113.332 492.8 114.171 489.818 112.039C485.888 109.235 486.688 103.677 489.502 100.478Z" fill="#2F2E41"/>
<path d="M436.819 311.473H397.847C396.792 311.472 395.78 311.052 395.034 310.306C394.287 309.56 393.867 308.549 393.866 307.494V146.525C393.867 145.47 394.287 144.458 395.034 143.712C395.78 142.966 396.792 142.546 397.847 142.545H436.819C437.874 142.546 438.886 142.966 439.632 143.712C440.378 144.458 440.798 145.47 440.799 146.525V307.494C440.798 308.549 440.378 309.56 439.632 310.306C438.886 311.052 437.874 311.472 436.819 311.473Z" fill="#EFD5F5"/>
<path d="M428.223 227.153C429.449 226.376 430.83 225.877 432.27 225.691C433.71 225.506 435.173 225.638 436.556 226.079C437.939 226.519 439.208 227.258 440.275 228.242C441.342 229.227 442.179 230.433 442.729 231.776L477.962 229.852L468.718 245.684L436.677 245.084C434.359 245.859 431.838 245.756 429.59 244.795C427.343 243.835 425.526 242.084 424.484 239.873C423.442 237.663 423.247 235.147 423.936 232.803C424.625 230.459 426.151 228.448 428.223 227.153H428.223Z" fill="#FFB6B6"/>
<path d="M497.753 251.937L462.444 251.036L462.9 227.684L479.596 222.371L506.982 183.966C508.354 182.043 510.097 180.415 512.108 179.177C514.12 177.939 516.359 177.117 518.694 176.759C521.029 176.402 523.412 176.516 525.702 177.095C527.992 177.674 530.143 178.706 532.027 180.131C533.911 181.555 535.49 183.343 536.671 185.388C537.852 187.434 538.611 189.695 538.903 192.038C539.195 194.382 539.014 196.76 538.37 199.033C537.727 201.305 536.635 203.425 535.157 205.268L497.753 251.937Z" fill="#3F3D56"/>
<path d="M652.012 487H275.803C275.673 487 275.544 486.975 275.424 486.926C275.304 486.876 275.195 486.804 275.103 486.712C275.011 486.62 274.938 486.511 274.888 486.391C274.838 486.271 274.812 486.143 274.812 486.013C274.812 485.883 274.838 485.754 274.888 485.634C274.938 485.514 275.011 485.405 275.103 485.314C275.195 485.222 275.304 485.149 275.424 485.1C275.544 485.05 275.673 485.025 275.803 485.026H652.012C652.142 485.025 652.271 485.05 652.391 485.1C652.511 485.149 652.621 485.222 652.713 485.314C652.805 485.405 652.878 485.514 652.927 485.634C652.977 485.754 653.003 485.883 653.003 486.013C653.003 486.143 652.977 486.271 652.927 486.391C652.878 486.511 652.805 486.62 652.713 486.712C652.621 486.804 652.511 486.876 652.391 486.926C652.271 486.975 652.142 487 652.012 487Z" fill="#CACACA"/>
</g>
<defs>
<filter id="filter0_ddddd" x="0" y="0" width="657" height="495" filterUnits="userSpaceOnUse" color-interpolation-filters="sRGB">
<feFlood flood-opacity="0" result="BackgroundImageFix"/>
<feColorMatrix in="SourceAlpha" type="matrix" values="0 0 0 0 0 0 0 0 0 0 0 0 0 0 0 0 0 0 127 0" result="hardAlpha"/>
<feOffset dy="4"/>
<feGaussianBlur stdDeviation="2"/>
<feComposite in2="hardAlpha" operator="out"/>
<feColorMatrix type="matrix" values="0 0 0 0 0 0 0 0 0 0 0 0 0 0 0 0 0 0 0.25 0"/>
<feBlend mode="normal" in2="BackgroundImageFix" result="effect1_dropShadow"/>
<feColorMatrix in="SourceAlpha" type="matrix" values="0 0 0 0 0 0 0 0 0 0 0 0 0 0 0 0 0 0 127 0" result="hardAlpha"/>
<feOffset dy="4"/>
<feGaussianBlur stdDeviation="2"/>
<feComposite in2="hardAlpha" operator="out"/>
<feColorMatrix type="matrix" values="0 0 0 0 0 0 0 0 0 0 0 0 0 0 0 0 0 0 0.25 0"/>
<feBlend mode="normal" in2="effect1_dropShadow" result="effect2_dropShadow"/>
<feColorMatrix in="SourceAlpha" type="matrix" values="0 0 0 0 0 0 0 0 0 0 0 0 0 0 0 0 0 0 127 0" result="hardAlpha"/>
<feOffset dy="4"/>
<feGaussianBlur stdDeviation="2"/>
<feComposite in2="hardAlpha" operator="out"/>
<feColorMatrix type="matrix" values="0 0 0 0 0 0 0 0 0 0 0 0 0 0 0 0 0 0 0.25 0"/>
<feBlend mode="normal" in2="effect2_dropShadow" result="effect3_dropShadow"/>
<feColorMatrix in="SourceAlpha" type="matrix" values="0 0 0 0 0 0 0 0 0 0 0 0 0 0 0 0 0 0 127 0" result="hardAlpha"/>
<feOffset dy="4"/>
<feGaussianBlur stdDeviation="2"/>
<feComposite in2="hardAlpha" operator="out"/>
<feColorMatrix type="matrix" values="0 0 0 0 0 0 0 0 0 0 0 0 0 0 0 0 0 0 0.25 0"/>
<feBlend mode="normal" in2="effect3_dropShadow" result="effect4_dropShadow"/>
<feColorMatrix in="SourceAlpha" type="matrix" values="0 0 0 0 0 0 0 0 0 0 0 0 0 0 0 0 0 0 127 0" result="hardAlpha"/>
<feOffset dy="4"/>
<feGaussianBlur stdDeviation="2"/>
<feComposite in2="hardAlpha" operator="out"/>
<feColorMatrix type="matrix" values="0 0 0 0 0 0 0 0 0 0 0 0 0 0 0 0 0 0 0.25 0"/>
<feBlend mode="normal" in2="effect4_dropShadow" result="effect5_dropShadow"/>
<feBlend mode="normal" in="SourceGraphic" in2="effect5_dropShadow" result="shape"/>
</filter>
<clipPath id="clip0">
<rect width="649" height="487" fill="white" transform="translate(4)"/>
</clipPath>
</defs>
</svg>
